<svg width="18" height="17" viewBox="0 0 18 17" fill="none" xmlns="http://www.w3.org/2000/svg">
<path fill-rule="evenodd" clip-rule="evenodd" d="M7.32378 0.115236H10.6762C10.9337 0.115216 11.1702 0.115206 11.3679 0.131356C11.581 0.148766 11.8142 0.188626 12.0445 0.305976C12.3738 0.473756 12.6415 0.741476 12.8093 1.07076C12.9266 1.30107 12.9665 1.53424 12.9839 1.74737C13 1.94505 13 2.18153 13 2.43901V3.11524H15.6762C15.9337 3.11522 16.1702 3.11521 16.3679 3.13136C16.581 3.14877 16.8142 3.18863 17.0445 3.30598C17.3738 3.47376 17.6415 3.74148 17.8093 4.07076C17.9266 4.30107 17.9665 4.53424 17.9839 4.74737C18 4.94505 18 5.18153 18 5.43901V9.79144C18 10.0489 18 10.2854 17.9839 10.4831C17.9665 10.6962 17.9266 10.9294 17.8093 11.1597C17.6415 11.489 17.3738 11.7567 17.0445 11.9245C17.0297 11.932 17.0148 11.9392 17 11.9462V13.7914C17 14.0489 17 14.2854 16.9839 14.4831C16.9665 14.6962 16.9266 14.9294 16.8093 15.1597C16.6415 15.489 16.3738 15.7567 16.0445 15.9245C15.8142 16.0418 15.581 16.0817 15.3679 16.0991C15.1702 16.1152 14.9337 16.1152 14.6762 16.1152H3.32377C3.06629 16.1152 2.82981 16.1152 2.63213 16.0991C2.419 16.0817 2.18583 16.0418 1.95552 15.9245C1.62624 15.7567 1.35852 15.489 1.19074 15.1597C1.07339 14.9294 1.03353 14.6962 1.01612 14.4831C0.999971 14.2854 0.999981 14.0489 1 13.7914V11.9462C0.985171 11.9392 0.970341 11.932 0.955521 11.9245C0.626241 11.7567 0.358521 11.489 0.190741 11.1597C0.0733911 10.9294 0.0335311 10.6962 0.0161211 10.4831C-3.29409e-05 10.2854 -1.58975e-05 10.0489 1.10252e-06 9.79144V5.43902C-1.58975e-05 5.18154 -3.29409e-05 4.94506 0.0161211 4.74737C0.0335311 4.53424 0.0733911 4.30107 0.190741 4.07076C0.358521 3.74148 0.626241 3.47376 0.955521 3.30598C1.18583 3.18863 1.419 3.14877 1.63213 3.13136C1.82982 3.11521 2.0663 3.11522 2.32379 3.11524C2.3325 3.11524 2.34124 3.11524 2.35 3.11524H5V2.43903C4.99998 2.18154 4.99997 1.94506 5.01612 1.74737C5.03353 1.53424 5.07339 1.30107 5.19074 1.07076C5.35852 0.741476 5.62624 0.473756 5.95552 0.305976C6.18583 0.188626 6.419 0.148766 6.63213 0.131356C6.82982 0.115206 7.0663 0.115216 7.32378 0.115236ZM2.35 4.61524C2.0576 4.61524 1.88341 4.61583 1.75428 4.62638C1.67547 4.63281 1.64234 4.64131 1.63347 4.64407C1.58883 4.66759 1.55235 4.70407 1.52883 4.74871C1.52607 4.75758 1.51757 4.79071 1.51114 4.86952C1.50059 4.99865 1.5 5.17284 1.5 5.46524V9.76523C1.5 10.0576 1.50059 10.2318 1.51114 10.3609C1.51757 10.4397 1.52607 10.4729 1.52883 10.4817C1.55235 10.5264 1.58883 10.5629 1.63347 10.5864C1.64234 10.5891 1.67547 10.5976 1.75428 10.6041C1.76561 10.605 1.77729 10.6058 1.78936 10.6066C1.79424 10.6069 1.7991 10.6072 1.80395 10.6075C1.92791 10.6148 2.09346 10.6152 2.35 10.6152H6V9.86524C6 9.45104 6.33579 9.11524 6.75 9.11524C7.16422 9.11524 7.5 9.45104 7.5 9.86524V10.6152H10.5V9.86524C10.5 9.45104 10.8358 9.11524 11.25 9.11524C11.6642 9.11524 12 9.45104 12 9.86524V10.6152H15.65C15.9065 10.6152 16.0721 10.6148 16.1961 10.6075C16.2009 10.6072 16.2058 10.6069 16.2106 10.6066C16.2227 10.6058 16.2344 10.605 16.2457 10.6041C16.3245 10.5976 16.3577 10.5891 16.3665 10.5864C16.4112 10.5629 16.4477 10.5264 16.4712 10.4817C16.4739 10.4729 16.4824 10.4397 16.4889 10.3609C16.4994 10.2318 16.5 10.0576 16.5 9.76523V5.46524C16.5 5.17284 16.4994 4.99865 16.4889 4.86952C16.4824 4.79071 16.4739 4.75758 16.4712 4.74871C16.4477 4.70407 16.4112 4.66759 16.3665 4.64407C16.3577 4.64131 16.3245 4.63282 16.2457 4.62638C16.1166 4.61583 15.9424 4.61524 15.65 4.61524H2.35ZM11.5 3.11524H6.5V2.46524C6.5 2.17284 6.50059 1.99865 6.51114 1.86952C6.51757 1.79071 6.52607 1.75758 6.52883 1.74871C6.55235 1.70407 6.58883 1.66759 6.63346 1.64407C6.64234 1.64131 6.67547 1.63281 6.75428 1.62638C6.88341 1.61583 7.0576 1.61524 7.35 1.61524H10.65C10.9424 1.61524 11.1166 1.61583 11.2457 1.62638C11.3245 1.63281 11.3577 1.64131 11.3665 1.64407C11.4112 1.66759 11.4477 1.70406 11.4712 1.74871C11.4739 1.75758 11.4824 1.79071 11.4889 1.86952C11.4994 1.99865 11.5 2.17284 11.5 2.46524V3.11524ZM11.4703 1.74612L11.4708 1.7476L11.4703 1.74612ZM11.3691 1.64497L11.3676 1.64442L11.3691 1.64497ZM6.63088 1.64497L6.63236 1.64442L6.63088 1.64497ZM6.52918 1.7476L6.52973 1.74612L6.52918 1.7476ZM16.3691 4.64497L16.3676 4.64441L16.3691 4.64497ZM16.4703 4.74612L16.4708 4.7476L16.4703 4.74612ZM16.4703 10.4843L16.4708 10.4828L16.4703 10.4843ZM16.3691 10.5855L16.3676 10.586L16.3691 10.5855ZM15.5 12.1152H12V12.3652C12 12.7794 11.6642 13.1152 11.25 13.1152C10.8358 13.1152 10.5 12.7794 10.5 12.3652V12.1152H7.5V12.3652C7.5 12.7794 7.16422 13.1152 6.75 13.1152C6.33579 13.1152 6 12.7794 6 12.3652V12.1152H2.5V13.7652C2.5 14.0576 2.50059 14.2318 2.51114 14.3609C2.51758 14.4397 2.52607 14.4729 2.52883 14.4817C2.55235 14.5264 2.58883 14.5629 2.63347 14.5864C2.64235 14.5891 2.67547 14.5976 2.75428 14.6041C2.88341 14.6146 3.0576 14.6152 3.35 14.6152H14.65C14.9424 14.6152 15.1166 14.6146 15.2457 14.6041C15.3245 14.5976 15.3577 14.5891 15.3665 14.5864C15.4112 14.5629 15.4477 14.5264 15.4712 14.4817C15.4739 14.4729 15.4824 14.4397 15.4889 14.3609C15.4994 14.2318 15.5 14.0576 15.5 13.7652V12.1152ZM15.4703 14.4843L15.4708 14.4828L15.4703 14.4843ZM15.3691 14.5855L15.3676 14.586L15.3691 14.5855ZM2.63088 14.5855L2.63236 14.586L2.63088 14.5855ZM2.52918 14.4828L2.52973 14.4843L2.52918 14.4828ZM1.63088 10.5855L1.63236 10.586L1.63088 10.5855ZM1.52918 10.4828L1.52973 10.4843L1.52918 10.4828ZM1.52917 4.74763L1.52973 4.74612L1.52917 4.74763ZM1.63239 4.64441L1.63088 4.64497L1.63239 4.64441Z" fill="black"/>
</svg>
