<svg width="16" height="19" viewBox="0 0 16 19" fill="none" xmlns="http://www.w3.org/2000/svg">
<path fill-rule="evenodd" clip-rule="evenodd" d="M7.5742 0.25759C7.83054 0.0808032 8.1695 0.0808032 8.4258 0.25759L14.8113 4.66136C15.5556 5.17467 16 6.02105 16 6.9252V15.375C16 16.8938 14.7688 18.125 13.25 18.125H2.75C1.23122 18.125 0 16.8938 0 15.375V6.9252C0 6.02105 0.44443 5.17467 1.18873 4.66136L7.5742 0.25759ZM6.5 16.625H9.5V11.875C9.5 11.7369 9.3881 11.625 9.25 11.625H6.75C6.61193 11.625 6.5 11.7369 6.5 11.875V16.625ZM11 16.625V11.875C11 10.9085 10.2165 10.125 9.25 10.125H6.75C5.7835 10.125 5 10.9085 5 11.875V16.625H2.75C2.05964 16.625 1.5 16.0654 1.5 15.375V6.9252C1.5 6.51422 1.70201 6.1295 2.04033 5.89618L8 1.78606L13.9597 5.89618C14.298 6.1295 14.5 6.51422 14.5 6.9252V15.375C14.5 16.0654 13.9404 16.625 13.25 16.625H11Z" fill="currentColor"/>
</svg>
