<svg width="18" height="15" viewBox="0 0 18 15" fill="none" xmlns="http://www.w3.org/2000/svg">
<path fill-rule="evenodd" clip-rule="evenodd" d="M1.56424 2.42857L9 6.70977L16.4358 2.42857C16.27 1.93264 15.8017 1.5752 15.25 1.5752H2.75C2.19828 1.5752 1.73005 1.93264 1.56424 2.42857ZM16.5 4.12245L9.3742 8.22519C9.1426 8.35849 8.85743 8.35849 8.62578 8.22519L1.5 4.12245V11.3252C1.5 12.0156 2.05964 12.5752 2.75 12.5752H15.25C15.9404 12.5752 16.5 12.0156 16.5 11.3252V4.12245ZM0 2.8252C0 1.30642 1.23122 0.0751953 2.75 0.0751953H15.25C16.7688 0.0751953 18 1.30642 18 2.8252V11.3252C18 12.844 16.7688 14.0752 15.25 14.0752H2.75C1.23122 14.0752 0 12.844 0 11.3252V2.8252Z" fill="currentColor"/>
</svg>
