<svg width="18" height="19" viewBox="0 0 18 19" fill="none" xmlns="http://www.w3.org/2000/svg">
<path d="M15.3353 15.3839H12.6698V11.2072C12.6698 10.2112 12.6495 8.92942 11.2808 8.92942C9.891 8.92942 9.67875 10.0132 9.67875 11.1337V15.3839H7.01325V6.79492H9.57375V7.96567H9.60825C9.966 7.29067 10.836 6.57817 12.1357 6.57817C14.8365 6.57817 15.336 8.35567 15.336 10.6694L15.3353 15.3839ZM4.00275 5.61967C3.14475 5.61967 2.4555 4.92517 2.4555 4.07092C2.4555 3.21742 3.1455 2.52367 4.00275 2.52367C4.85775 2.52367 5.55075 3.21742 5.55075 4.07092C5.55075 4.92517 4.857 5.61967 4.00275 5.61967ZM5.33925 15.3839H2.66625V6.79492H5.33925V15.3839ZM16.6688 0.0449219H1.32825C0.594 0.0449219 0 0.625422 0 1.34167V16.7482C0 17.4652 0.594 18.0449 1.32825 18.0449H16.6665C17.4 18.0449 18 17.4652 18 16.7482V1.34167C18 0.625422 17.4 0.0449219 16.6665 0.0449219H16.6688Z" fill="black"/>
</svg>
