<svg width="18" height="19" viewBox="0 0 18 19" fill="none" xmlns="http://www.w3.org/2000/svg">
<path fill-rule="evenodd" clip-rule="evenodd" d="M11.8912 1.13306C12.5623 0.461971 13.4725 0.0849609 14.4216 0.0849609C16.3979 0.0849609 18 1.68708 18 3.66339C18 4.61244 17.623 5.52263 16.9519 6.19372L5.28033 17.8653C5.13968 18.006 4.94891 18.085 4.75 18.085H0.75C0.33579 18.085 0 17.7492 0 17.335V13.335C0 13.1361 0.0790201 12.9453 0.21967 12.8047L11.8912 1.13306ZM14.4216 1.58496C13.8703 1.58496 13.3417 1.80394 12.9519 2.19372L12.5607 2.58496L15.5 5.5243L15.8912 5.13306C16.281 4.74328 16.5 4.21462 16.5 3.66339C16.5 2.5155 15.5695 1.58496 14.4216 1.58496ZM14.4393 6.58496L11.5 3.64562L1.5 13.6457V16.585H4.43934L14.4393 6.58496Z" fill="currentColor"/>
</svg>
