<svg width="14" height="19" viewBox="0 0 14 19" fill="none" xmlns="http://www.w3.org/2000/svg">
<path fill-rule="evenodd" clip-rule="evenodd" d="M7 1.60498C5.61929 1.60498 4.5 2.72427 4.5 4.10498C4.5 5.48569 5.61929 6.60498 7 6.60498C8.3807 6.60498 9.5 5.48569 9.5 4.10498C9.5 2.72427 8.3807 1.60498 7 1.60498ZM3 4.10498C3 1.89584 4.79086 0.10498 7 0.10498C9.2091 0.10498 11 1.89584 11 4.10498C11 6.31412 9.2091 8.10498 7 8.10498C4.79086 8.10498 3 6.31412 3 4.10498ZM0 15.73C0 12.6234 2.5184 10.105 5.625 10.105H8.375C11.4816 10.105 14 12.6234 14 15.73C14 17.0417 12.9367 18.105 11.625 18.105H2.375C1.06332 18.105 0 17.0417 0 15.73ZM5.625 11.605C3.34683 11.605 1.5 13.4518 1.5 15.73C1.5 16.2132 1.89175 16.605 2.375 16.605H11.625C12.1082 16.605 12.5 16.2132 12.5 15.73C12.5 13.4518 10.6532 11.605 8.375 11.605H5.625Z" fill="black"/>
</svg>
