<svg width="18" height="15" viewBox="0 0 18 15" fill="none" xmlns="http://www.w3.org/2000/svg">
<path fill-rule="evenodd" clip-rule="evenodd" d="M7.6177 0.191664C7.97872 0.394734 8.10676 0.852024 7.90369 1.21304L6.28239 4.09534H11.7176L10.0963 1.21304C9.8933 0.852024 10.0213 0.394734 10.3823 0.191664C10.7433 -0.0114058 11.2006 0.116634 11.4037 0.477654L13.4386 4.09534H17.25C17.4864 4.09534 17.7089 4.20677 17.8505 4.39602C17.9921 4.58527 18.0362 4.8302 17.9695 5.05697L15.4695 13.5569C15.3757 13.8761 15.0827 14.0953 14.75 14.0953H3.25001C2.9173 14.0953 2.62436 13.8761 2.53048 13.5569L0.0304811 5.05697C-0.0362109 4.8302 0.00789112 4.58527 0.149501 4.39602C0.291101 4.20677 0.513641 4.09534 0.750011 4.09534H4.56137L6.59632 0.477654C6.7994 0.116634 7.25668 -0.0114058 7.6177 0.191664ZM4.98521 5.59534H1.75236L3.81119 12.5953H14.1888L16.2477 5.59534H13.0148C13.0054 5.59552 12.996 5.59552 12.9866 5.59534H5.01343C5.00403 5.59552 4.99463 5.59552 4.98521 5.59534ZM5.75001 7.09533C6.16422 7.09533 6.50001 7.43113 6.50001 7.84533V10.3453C6.50001 10.7595 6.16422 11.0953 5.75001 11.0953C5.33579 11.0953 5.00001 10.7595 5.00001 10.3453V7.84533C5.00001 7.43113 5.33579 7.09533 5.75001 7.09533ZM9 7.09533C9.4142 7.09533 9.75 7.43113 9.75 7.84533V10.3453C9.75 10.7595 9.4142 11.0953 9 11.0953C8.58579 11.0953 8.25001 10.7595 8.25001 10.3453V7.84533C8.25001 7.43113 8.58579 7.09533 9 7.09533ZM12.25 7.09533C12.6642 7.09533 13 7.43113 13 7.84533V10.3453C13 10.7595 12.6642 11.0953 12.25 11.0953C11.8358 11.0953 11.5 10.7595 11.5 10.3453V7.84533C11.5 7.43113 11.8358 7.09533 12.25 7.09533Z" fill="currentColor"/>
</svg>
